<?xml version="1.0" encoding="iso-8859-1"?>
<!-- Generator: Adobe Illustrator 19.0.0, SVG Export Plug-In . SVG Version: 6.00 Build 0)  -->
<svg version="1.1" id="Capa_1" xmlns="http://www.w3.org/2000/svg" xmlns:xlink="http://www.w3.org/1999/xlink" x="0px" y="0px"
	 viewBox="0 0 512 512" style="enable-background:new 0 0 512 512;" xml:space="preserve">
<g>
	<g>
		<path d="M401.5,250.306V100c0-33.084-26.916-60-60-60h-65.427C267.818,16.719,245.575,0,219.5,0s-48.318,16.719-56.573,40H96.5
			c-33.084,0-60,26.916-60,60v312c0,33.084,26.916,60,60,60h129.439c8.255,23.278,30.489,40,56.573,40l132.989-0.074
			c33.084,0,60-26.913,60-59.992V324.728L401.5,250.306z M407.356,312.925H381.5c-11.028,0-20-8.972-20-20v-26.117L407.356,312.925z
			 M159.5,80h40V60c0-11.028,8.972-20,20-20s20,8.972,20,20v20h40v39h-120V80z M222.5,258.993V432h-126c-11.028,0-20-8.972-20-20
			V100c0-11.028,8.972-20,20-20h23v79h200V80h22c11.028,0,20,8.972,20,20v110.079L350.484,199H282.5
			C249.416,199,222.5,225.913,222.5,258.993z M435.5,451.934c0,11.024-8.972,19.992-20.011,19.992L282.5,472
			c-11.028,0-20-8.969-20-19.993V258.993c0-11.024,8.972-19.993,20-19.993h39v53.926c0,33.084,26.916,60,60,60h54V451.934z"/>
	</g>
</g>
<g>
</g>
<g>
</g>
<g>
</g>
<g>
</g>
<g>
</g>
<g>
</g>
<g>
</g>
<g>
</g>
<g>
</g>
<g>
</g>
<g>
</g>
<g>
</g>
<g>
</g>
<g>
</g>
<g>
</g>
</svg>
